<svg xmlns="http://www.w3.org/2000/svg" version="1.1" xmlns:xlink="http://www.w3.org/1999/xlink" xmlns:svgjs="http://svgjs.dev/svgjs" width="1000" height="199" viewBox="0 0 1000 199"><g transform="matrix(1,0,0,1,-0.6060606060606233,-0.5524545029435615)"><svg viewBox="0 0 396 79" data-background-color="#fce44d" preserveAspectRatio="xMidYMid meet" height="199" width="1000" xmlns="http://www.w3.org/2000/svg" xmlns:xlink="http://www.w3.org/1999/xlink"><g id="tight-bounds" transform="matrix(1,0,0,1,0.2400000000000091,0.2193161151985521)"><svg viewBox="0 0 395.52 78.56136777559271" height="78.56136777559271" width="395.52"><g><svg viewBox="0 0 504.2727787196193 100.16272054058479" height="78.56136777559271" width="395.52"><g transform="matrix(1,0,0,1,108.75277871961927,13.843038801195156)"><svg viewBox="0 0 395.52 72.47664293819447" height="72.47664293819447" width="395.52"><g><svg viewBox="0 0 395.52 72.47664293819447" height="72.47664293819447" width="395.52"><g><svg viewBox="0 0 395.52 50.730861618798954" height="50.730861618798954" width="395.52"><g transform="matrix(1,0,0,1,0,0)"><svg width="395.52" viewBox="4.349999904632568 -39.04999923706055 306.3800048828125 39.29999923706055" height="50.730861618798954" data-palette-color="#374151"><path d="M7.45 0L7.45 0Q6.4 0 5.75-0.65 5.1-1.3 5.1-2.35L5.1-2.35 5.1-25Q5.1-26.05 5.75-26.7 6.4-27.35 7.45-27.35L7.45-27.35Q8.5-27.35 9.15-26.7 9.8-26.05 9.8-25L9.8-25 9.8-2.35Q9.8-1.3 9.15-0.65 8.5 0 7.45 0ZM7.45-32.05L7.45-32.05Q6.2-32.05 5.28-32.98 4.35-33.9 4.35-35.15L4.35-35.15Q4.35-36.5 5.28-37.38 6.2-38.25 7.45-38.25L7.45-38.25Q8.7-38.25 9.63-37.38 10.55-36.5 10.55-35.15L10.55-35.15Q10.55-33.9 9.65-32.98 8.75-32.05 7.45-32.05ZM42.6 0.05L42.6 0.05Q41.6 0.05 40.92-0.63 40.25-1.3 40.25-2.3L40.25-2.3 40.25-14.85Q40.25-17.75 39.17-19.63 38.1-21.5 36.22-22.43 34.35-23.35 32-23.35L32-23.35Q29.75-23.35 27.97-22.45 26.2-21.55 25.15-20.05 24.1-18.55 24.1-16.65L24.1-16.65 21.05-16.65Q21.1-19.8 22.65-22.28 24.2-24.75 26.85-26.18 29.5-27.6 32.8-27.6L32.8-27.6Q36.25-27.6 39-26.13 41.75-24.65 43.35-21.8 44.95-18.95 44.95-14.85L44.95-14.85 44.95-2.3Q44.95-1.3 44.27-0.63 43.6 0.05 42.6 0.05ZM21.75 0.05L21.75 0.05Q20.7 0.05 20.05-0.63 19.4-1.3 19.4-2.3L19.4-2.3 19.4-25Q19.4-26.05 20.05-26.7 20.7-27.35 21.75-27.35L21.75-27.35Q22.8-27.35 23.45-26.7 24.1-26.05 24.1-25L24.1-25 24.1-2.3Q24.1-1.3 23.45-0.63 22.8 0.05 21.75 0.05ZM76.59 0.05L76.59 0.05Q75.59 0.05 74.92-0.63 74.25-1.3 74.25-2.3L74.25-2.3 74.25-14.85Q74.25-17.75 73.17-19.63 72.09-21.5 70.22-22.43 68.34-23.35 66-23.35L66-23.35Q63.75-23.35 61.97-22.45 60.2-21.55 59.15-20.05 58.1-18.55 58.1-16.65L58.1-16.65 55.05-16.65Q55.1-19.8 56.65-22.28 58.2-24.75 60.85-26.18 63.5-27.6 66.8-27.6L66.8-27.6Q70.25-27.6 73-26.13 75.75-24.65 77.34-21.8 78.95-18.95 78.95-14.85L78.95-14.85 78.95-2.3Q78.95-1.3 78.27-0.63 77.59 0.05 76.59 0.05ZM55.75 0.05L55.75 0.05Q54.7 0.05 54.05-0.63 53.4-1.3 53.4-2.3L53.4-2.3 53.4-25Q53.4-26.05 54.05-26.7 54.7-27.35 55.75-27.35L55.75-27.35Q56.8-27.35 57.45-26.7 58.1-26.05 58.1-25L58.1-25 58.1-2.3Q58.1-1.3 57.45-0.63 56.8 0.05 55.75 0.05ZM55.75-10.35L55.75-10.35Q54.7-10.35 54.05-11.03 53.4-11.7 53.4-12.7L53.4-12.7 53.4-36.7Q53.4-37.75 54.05-38.4 54.7-39.05 55.75-39.05L55.75-39.05Q56.8-39.05 57.45-38.4 58.1-37.75 58.1-36.7L58.1-36.7 58.1-12.7Q58.1-11.7 57.45-11.03 56.8-10.35 55.75-10.35ZM99.84 0.2L99.84 0.2Q95.84 0.2 92.72-1.58 89.59-3.35 87.82-6.48 86.04-9.6 86.04-13.65L86.04-13.65Q86.04-17.75 87.82-20.88 89.59-24 92.72-25.78 95.84-27.55 99.84-27.55L99.84-27.55Q103.84-27.55 106.94-25.78 110.04-24 111.84-20.88 113.64-17.75 113.64-13.65L113.64-13.65Q113.64-9.6 111.87-6.48 110.09-3.35 106.99-1.58 103.89 0.2 99.84 0.2ZM99.84-3.95L99.84-3.95Q102.54-3.95 104.64-5.2 106.74-6.45 107.94-8.63 109.14-10.8 109.14-13.65L109.14-13.65Q109.14-16.5 107.94-18.7 106.74-20.9 104.64-22.15 102.54-23.4 99.84-23.4L99.84-23.4Q97.14-23.4 95.04-22.15 92.94-20.9 91.74-18.7 90.54-16.5 90.54-13.65L90.54-13.65Q90.54-10.8 91.74-8.63 92.94-6.45 95.04-5.2 97.14-3.95 99.84-3.95ZM132.89 0.25L132.89 0.25Q129.39 0.25 126.64-1.23 123.89-2.7 122.29-5.55 120.69-8.4 120.69-12.5L120.69-12.5 120.69-25.05Q120.69-26.05 121.37-26.73 122.04-27.4 123.04-27.4L123.04-27.4Q124.04-27.4 124.72-26.73 125.39-26.05 125.39-25.05L125.39-25.05 125.39-12.5Q125.39-9.6 126.49-7.73 127.59-5.85 129.47-4.93 131.34-4 133.69-4L133.69-4Q135.94-4 137.72-4.9 139.49-5.8 140.54-7.3 141.59-8.8 141.59-10.7L141.59-10.7 144.59-10.7Q144.54-7.6 142.99-5.1 141.44-2.6 138.81-1.18 136.19 0.25 132.89 0.25ZM143.89 0L143.89 0Q142.89 0 142.24-0.65 141.59-1.3 141.59-2.35L141.59-2.35 141.59-25.05Q141.59-26.1 142.24-26.75 142.89-27.4 143.89-27.4L143.89-27.4Q144.94-27.4 145.59-26.75 146.24-26.1 146.24-25.05L146.24-25.05 146.24-2.35Q146.24-1.3 145.59-0.65 144.94 0 143.89 0ZM165.04 0.2L165.04 0.2Q161.74 0.2 158.79-0.85 155.84-1.9 154.14-3.65L154.14-3.65Q153.44-4.4 153.56-5.33 153.69-6.25 154.49-6.85L154.49-6.85Q155.39-7.55 156.29-7.45 157.19-7.35 157.79-6.65L157.79-6.65Q158.79-5.55 160.69-4.75 162.59-3.95 164.94-3.95L164.94-3.95Q168.09-3.95 169.66-5 171.24-6.05 171.29-7.65L171.29-7.65Q171.29-9.25 169.74-10.38 168.19-11.5 164.29-12.2L164.29-12.2Q159.24-13.15 156.94-15.15 154.64-17.15 154.64-20L154.64-20Q154.64-22.55 156.09-24.23 157.54-25.9 159.86-26.73 162.19-27.55 164.79-27.55L164.79-27.55Q168.09-27.55 170.61-26.48 173.14-25.4 174.64-23.5L174.64-23.5Q175.24-22.75 175.19-21.95 175.14-21.15 174.34-20.6L174.34-20.6Q173.64-20.1 172.64-20.28 171.64-20.45 170.94-21.1L170.94-21.1Q169.69-22.4 168.19-22.93 166.69-23.45 164.69-23.45L164.69-23.45Q162.29-23.45 160.74-22.58 159.19-21.7 159.19-20.15L159.19-20.15Q159.19-19.2 159.71-18.43 160.24-17.65 161.66-17.05 163.09-16.45 165.84-15.95L165.84-15.95Q169.59-15.25 171.76-14.08 173.94-12.9 174.86-11.38 175.79-9.85 175.79-7.9L175.79-7.9Q175.79-5.55 174.51-3.73 173.24-1.9 170.86-0.85 168.49 0.2 165.04 0.2ZM195.03 0.2L195.03 0.2Q190.94 0.2 187.74-1.58 184.53-3.35 182.74-6.48 180.94-9.6 180.94-13.65L180.94-13.65Q180.94-17.75 182.64-20.88 184.34-24 187.36-25.78 190.39-27.55 194.28-27.55L194.28-27.55Q198.14-27.55 200.96-25.83 203.79-24.1 205.29-21.08 206.79-18.05 206.79-14.1L206.79-14.1Q206.79-13.2 206.19-12.63 205.59-12.05 204.64-12.05L204.64-12.05 184.14-12.05 184.14-15.8 204.69-15.8 202.59-14.35Q202.59-17 201.59-19.07 200.59-21.15 198.74-22.35 196.89-23.55 194.28-23.55L194.28-23.55Q191.44-23.55 189.36-22.28 187.28-21 186.21-18.75 185.14-16.5 185.14-13.65L185.14-13.65Q185.14-10.8 186.41-8.58 187.69-6.35 189.91-5.08 192.14-3.8 195.03-3.8L195.03-3.8Q196.69-3.8 198.36-4.4 200.04-5 201.09-5.8L201.09-5.8Q201.79-6.3 202.59-6.33 203.39-6.35 203.99-5.85L203.99-5.85Q204.79-5.15 204.84-4.33 204.89-3.5 204.09-2.9L204.09-2.9Q202.44-1.55 199.89-0.68 197.34 0.2 195.03 0.2ZM241.73 0.2L241.73 0.2Q237.83 0.2 234.71-1.6 231.58-3.4 229.78-6.55 227.98-9.7 227.93-13.65L227.93-13.65 227.93-36.7Q227.93-37.75 228.58-38.4 229.23-39.05 230.28-39.05L230.28-39.05Q231.33-39.05 231.98-38.4 232.63-37.75 232.63-36.7L232.63-36.7 232.63-22.8Q234.33-25 236.88-26.28 239.43-27.55 242.53-27.55L242.53-27.55Q246.23-27.55 249.18-25.73 252.13-23.9 253.86-20.78 255.58-17.65 255.58-13.7L255.58-13.7Q255.58-9.75 253.76-6.6 251.93-3.45 248.81-1.63 245.68 0.2 241.73 0.2ZM241.73-3.95L241.73-3.95Q244.38-3.95 246.48-5.23 248.58-6.5 249.81-8.72 251.03-10.95 251.03-13.7L251.03-13.7Q251.03-16.5 249.81-18.68 248.58-20.85 246.48-22.13 244.38-23.4 241.73-23.4L241.73-23.4Q239.08-23.4 236.98-22.13 234.88-20.85 233.68-18.68 232.48-16.5 232.48-13.7L232.48-13.7Q232.48-10.95 233.68-8.72 234.88-6.5 236.98-5.23 239.08-3.95 241.73-3.95ZM275.53 0.2L275.53 0.2Q271.53 0.2 268.4-1.58 265.28-3.35 263.5-6.48 261.73-9.6 261.73-13.65L261.73-13.65Q261.73-17.75 263.5-20.88 265.28-24 268.4-25.78 271.53-27.55 275.53-27.55L275.53-27.55Q279.53-27.55 282.63-25.78 285.73-24 287.53-20.88 289.33-17.75 289.33-13.65L289.33-13.65Q289.33-9.6 287.55-6.48 285.78-3.35 282.68-1.58 279.58 0.2 275.53 0.2ZM275.53-3.95L275.53-3.95Q278.23-3.95 280.33-5.2 282.43-6.45 283.63-8.63 284.83-10.8 284.83-13.65L284.83-13.65Q284.83-16.5 283.63-18.7 282.43-20.9 280.33-22.15 278.23-23.4 275.53-23.4L275.53-23.4Q272.83-23.4 270.73-22.15 268.63-20.9 267.43-18.7 266.23-16.5 266.23-13.65L266.23-13.65Q266.23-10.8 267.43-8.63 268.63-6.45 270.73-5.2 272.83-3.95 275.53-3.95ZM308.08 0L307.13 0Q304.58 0 302.55-1.28 300.53-2.55 299.35-4.73 298.18-6.9 298.18-9.7L298.18-9.7 298.18-33.75Q298.18-34.75 298.83-35.4 299.48-36.05 300.48-36.05L300.48-36.05Q301.53-36.05 302.18-35.4 302.83-34.75 302.83-33.75L302.83-33.75 302.83-9.7Q302.83-7.5 304.05-6.05 305.28-4.6 307.13-4.6L307.13-4.6 308.73-4.6Q309.58-4.6 310.15-3.95 310.73-3.3 310.73-2.3L310.73-2.3Q310.73-1.3 309.98-0.65 309.23 0 308.08 0L308.08 0ZM307.53-22.35L295.58-22.35Q294.63-22.35 294.03-22.93 293.43-23.5 293.43-24.3L293.43-24.3Q293.43-25.25 294.03-25.8 294.63-26.35 295.58-26.35L295.58-26.35 307.53-26.35Q308.48-26.35 309.08-25.8 309.68-25.25 309.68-24.3L309.68-24.3Q309.68-23.5 309.08-22.93 308.48-22.35 307.53-22.35L307.53-22.35Z" opacity="1" transform="matrix(1,0,0,1,0,0)" fill="#374151" class="undefined-text-0" data-fill-palette-color="primary" id="text-0"></path></svg></g></svg></g><g transform="matrix(1,0,0,1,0,62.707200506318536)"><svg viewBox="0 0 232.209792 9.769442431875934" height="9.769442431875934" width="232.209792"><g transform="matrix(1,0,0,1,0,0)"><svg width="232.209792" viewBox="5.420000076293945 -38.66999816894531 931.9100341796875 39.209999084472656" height="9.769442431875934" data-palette-color="#374151"><path d="M5.42 0L5.42-38.16 37.92-38.16 37.92-31.37 13.16-31.37 13.16-23.75 35.08-23.75 35.08-17.38 13.16-17.38 13.16-6.76 38.43-6.76 38.43 0 5.42 0ZM44.68-5.08L48.8-11.35Q50.88-10.18 53.01-9.24 55.15-8.3 57.44-7.65 59.74-7.01 62.27-6.67 64.79-6.32 67.65-6.32L67.65-6.32Q71.09-6.32 73.51-6.77 75.93-7.23 77.45-8.02 78.98-8.81 79.67-9.91 80.37-11.01 80.37-12.3L80.37-12.3Q80.37-14.38 78.64-15.59 76.9-16.8 73.29-16.8L73.29-16.8Q71.7-16.8 69.94-16.59 68.19-16.38 66.39-16.14 64.6-15.89 62.85-15.69 61.11-15.48 59.57-15.48L59.57-15.48Q57-15.48 54.65-16.14 52.29-16.8 50.47-18.12 48.65-19.43 47.58-21.41 46.51-23.39 46.51-26.03L46.51-26.03Q46.51-27.59 46.93-29.13 47.36-30.66 48.3-32.07 49.24-33.47 50.73-34.68 52.22-35.89 54.33-36.77 56.44-37.65 59.21-38.15 61.98-38.65 65.52-38.65L65.52-38.65Q68.09-38.65 70.68-38.37 73.26-38.09 75.72-37.57 78.17-37.06 80.44-36.34 82.71-35.62 84.67-34.74L84.67-34.74 81.27-28.49Q79.66-29.2 77.81-29.8 75.95-30.4 73.92-30.83 71.9-31.27 69.74-31.53 67.58-31.79 65.33-31.79L65.33-31.79Q62.13-31.79 60.07-31.32 58.01-30.86 56.78-30.14 55.56-29.42 55.09-28.53 54.61-27.64 54.61-26.76L54.61-26.76Q54.61-25.05 56.15-23.96 57.69-22.88 60.84-22.88L60.84-22.88Q62.11-22.88 63.75-23.06 65.4-23.24 67.22-23.46 69.04-23.68 70.93-23.86 72.82-24.05 74.61-24.05L74.61-24.05Q77.98-24.05 80.58-23.29 83.18-22.53 84.93-21.13 86.69-19.73 87.6-17.74 88.5-15.75 88.5-13.28L88.5-13.28Q88.5-9.99 86.97-7.41 85.45-4.83 82.63-3.06 79.81-1.29 75.83-0.38 71.85 0.54 66.97 0.54L66.97 0.54Q63.74 0.54 60.67 0.13 57.59-0.27 54.77-1.01 51.95-1.76 49.4-2.8 46.85-3.83 44.68-5.08L44.68-5.08ZM97.02 0L97.02-38.16 117.13-38.16Q121.53-38.16 124.75-37.21 127.97-36.25 130.1-34.46 132.22-32.67 133.26-30.08 134.3-27.49 134.3-24.24L134.3-24.24Q134.3-21.19 133.27-18.6 132.25-16.02 130.13-14.12 128.02-12.23 124.8-11.17 121.58-10.11 117.18-10.11L117.18-10.11 104.76-10.13 104.76 0 97.02 0ZM104.76-16.82L117.33-16.82Q119.53-16.82 121.17-17.35 122.82-17.87 123.93-18.84 125.04-19.8 125.59-21.18 126.14-22.56 126.14-24.24L126.14-24.24Q126.14-27.64 123.93-29.53 121.72-31.42 117.33-31.42L117.33-31.42 104.76-31.42 104.76-16.82ZM140.5-19.19L140.5-19.19Q140.5-23.51 142.08-27.1 143.67-30.69 146.54-33.26 149.41-35.84 153.42-37.26 157.44-38.67 162.32-38.67L162.32-38.67Q167.18-38.67 171.21-37.26 175.24-35.84 178.11-33.26 180.97-30.69 182.56-27.1 184.15-23.51 184.15-19.19L184.15-19.19Q184.15-14.84 182.56-11.22 180.97-7.59 178.11-4.98 175.24-2.37 171.21-0.92 167.18 0.54 162.32 0.54L162.32 0.54Q157.44 0.54 153.42-0.92 149.41-2.37 146.54-4.98 143.67-7.59 142.08-11.22 140.5-14.84 140.5-19.19ZM148.23-19.19L148.23-19.19Q148.23-16.24 149.3-13.87 150.36-11.5 152.25-9.83 154.14-8.15 156.72-7.25 159.29-6.35 162.32-6.35L162.32-6.35Q165.35-6.35 167.92-7.25 170.5-8.15 172.38-9.83 174.26-11.5 175.33-13.87 176.41-16.24 176.41-19.19L176.41-19.19Q176.41-22.14 175.33-24.49 174.26-26.83 172.38-28.45 170.5-30.08 167.92-30.93 165.35-31.79 162.32-31.79L162.32-31.79Q159.29-31.79 156.72-30.93 154.14-30.08 152.25-28.45 150.36-26.83 149.3-24.49 148.23-22.14 148.23-19.19ZM192.74 0L192.74-38.16 212.15-38.16Q216.54-38.16 219.77-37.24 222.99-36.33 225.11-34.59 227.24-32.86 228.27-30.37 229.31-27.88 229.31-24.73L229.31-24.73Q229.31-22.61 228.8-20.69 228.29-18.77 227.22-17.16 226.16-15.55 224.55-14.29 222.94-13.04 220.77-12.21L220.77-12.21 229.07 0 219.59 0 212.42-10.84 212.2-10.84 200.48-10.86 200.48 0 192.74 0ZM200.48-17.55L212.34-17.55Q214.54-17.55 216.19-18.07 217.84-18.58 218.95-19.51 220.06-20.43 220.61-21.77 221.16-23.1 221.16-24.73L221.16-24.73Q221.16-27.93 218.96-29.68 216.76-31.42 212.34-31.42L212.34-31.42 200.48-31.42 200.48-17.55ZM249.96 0L249.96-31.37 235.88-31.37 235.88-38.16 271.79-38.16 271.79-31.37 257.7-31.37 257.7 0 249.96 0ZM291.73 0L309.65-38.16 317.85-38.16 336.31 0 328.18 0 325.13-6.42 302.84-6.42 299.88 0 291.73 0ZM305.79-12.79L322.08-12.79 313.83-30.13 305.79-12.79ZM342.27 0L342.27-38.16 350-38.16 363.87-24.24 377.74-38.16 385.48-38.16 385.48 0 377.74 0 377.74-27.44 363.87-14.09 350-27.44 350 0 342.27 0ZM394.09-19.19L394.09-19.19Q394.09-23.51 395.68-27.1 397.27-30.69 400.14-33.26 403-35.84 407.02-37.26 411.04-38.67 415.92-38.67L415.92-38.67Q420.78-38.67 424.81-37.26 428.83-35.84 431.7-33.26 434.57-30.69 436.16-27.1 437.75-23.51 437.75-19.19L437.75-19.19Q437.75-14.84 436.16-11.22 434.57-7.59 431.7-4.98 428.83-2.37 424.81-0.92 420.78 0.54 415.92 0.54L415.92 0.54Q411.04 0.54 407.02-0.92 403-2.37 400.14-4.98 397.27-7.59 395.68-11.22 394.09-14.84 394.09-19.19ZM401.83-19.19L401.83-19.19Q401.83-16.24 402.89-13.87 403.96-11.5 405.85-9.83 407.74-8.15 410.32-7.25 412.89-6.35 415.92-6.35L415.92-6.35Q418.95-6.35 421.52-7.25 424.1-8.15 425.98-9.83 427.86-11.5 428.93-13.87 430.01-16.24 430.01-19.19L430.01-19.19Q430.01-22.14 428.93-24.49 427.86-26.83 425.98-28.45 424.1-30.08 421.52-30.93 418.95-31.79 415.92-31.79L415.92-31.79Q412.89-31.79 410.32-30.93 407.74-30.08 405.85-28.45 403.96-26.83 402.89-24.49 401.83-22.14 401.83-19.19ZM446.29 0L446.29-38.16 454.03-38.16 477.81-25.71 477.81-38.16 485.55-38.16 485.55 0 477.81 0 477.81-17.5 454.03-29.88 454.03 0 446.29 0ZM493.72-19.43L493.72-19.43Q493.72-23.46 495.24-26.97 496.75-30.47 499.66-33.06 502.56-35.64 506.8-37.13 511.03-38.62 516.5-38.62L516.5-38.62Q518.48-38.62 520.47-38.42 522.46-38.21 524.4-37.77 526.34-37.33 528.18-36.66 530.03-35.99 531.69-35.06L531.69-35.06 528.12-29.2Q527.12-29.79 525.85-30.26 524.58-30.74 523.13-31.07 521.68-31.4 520.13-31.57 518.58-31.74 517.01-31.74L517.01-31.74Q513.4-31.74 510.57-30.82 507.74-29.91 505.78-28.26 503.83-26.61 502.8-24.32 501.78-22.02 501.78-19.29L501.78-19.29Q501.78-16.46 502.85-14.09 503.93-11.72 505.91-10.01 507.88-8.3 510.69-7.34 513.5-6.37 516.96-6.37L516.96-6.37Q519.72-6.37 522.02-6.99 524.31-7.62 526.02-8.76 527.73-9.91 528.81-11.54 529.88-13.16 530.22-15.19L530.22-15.19 516.89-15.19 516.89-21.56 537.18-21.56 537.18-21.53 537.2-21.56Q537.81-18.63 537.58-15.86 537.35-13.09 536.31-10.63 535.28-8.18 533.47-6.13 531.66-4.08 529.15-2.6 526.63-1.12 523.43-0.31 520.24 0.51 516.43 0.51L516.43 0.51Q511.11 0.51 506.89-1.05 502.68-2.61 499.75-5.32 496.82-8.03 495.27-11.67 493.72-15.31 493.72-19.43ZM543.99-5.08L548.11-11.35Q550.19-10.18 552.33-9.24 554.46-8.3 556.76-7.65 559.05-7.01 561.58-6.67 564.11-6.32 566.96-6.32L566.96-6.32Q570.4-6.32 572.82-6.77 575.24-7.23 576.76-8.02 578.29-8.81 578.99-9.91 579.68-11.01 579.68-12.3L579.68-12.3Q579.68-14.38 577.95-15.59 576.22-16.8 572.6-16.8L572.6-16.8Q571.01-16.8 569.26-16.59 567.5-16.38 565.7-16.14 563.91-15.89 562.16-15.69 560.42-15.48 558.88-15.48L558.88-15.48Q556.32-15.48 553.96-16.14 551.61-16.8 549.79-18.12 547.97-19.43 546.89-21.41 545.82-23.39 545.82-26.03L545.82-26.03Q545.82-27.59 546.25-29.13 546.67-30.66 547.61-32.07 548.55-33.47 550.04-34.68 551.53-35.89 553.64-36.77 555.76-37.65 558.53-38.15 561.3-38.65 564.84-38.65L564.84-38.65Q567.4-38.65 569.99-38.37 572.58-38.09 575.03-37.57 577.48-37.06 579.76-36.34 582.03-35.62 583.98-34.74L583.98-34.74 580.59-28.49Q578.97-29.2 577.12-29.8 575.26-30.4 573.24-30.83 571.21-31.27 569.05-31.53 566.89-31.79 564.64-31.79L564.64-31.79Q561.44-31.79 559.38-31.32 557.32-30.86 556.1-30.14 554.88-29.42 554.4-28.53 553.93-27.64 553.93-26.76L553.93-26.76Q553.93-25.05 555.46-23.96 557-22.88 560.15-22.88L560.15-22.88Q561.42-22.88 563.07-23.06 564.72-23.24 566.53-23.46 568.35-23.68 570.25-23.86 572.14-24.05 573.92-24.05L573.92-24.05Q577.29-24.05 579.89-23.29 582.49-22.53 584.25-21.13 586.01-19.73 586.91-17.74 587.81-15.75 587.81-13.28L587.81-13.28Q587.81-9.99 586.29-7.41 584.76-4.83 581.94-3.06 579.12-1.29 575.14-0.38 571.16 0.54 566.28 0.54L566.28 0.54Q563.06 0.54 559.98 0.13 556.9-0.27 554.08-1.01 551.26-1.76 548.71-2.8 546.16-3.83 543.99-5.08L543.99-5.08ZM607.83 0L607.83-31.37 593.74-31.37 593.74-38.16 629.65-38.16 629.65-31.37 615.57-31.37 615.57 0 607.83 0ZM654.5 0L654.5-38.16 688.63-38.16 688.63-31.37 662.24-31.37 662.24-21.39 684.65-21.39 684.65-15.01 662.24-15.01 662.24 0 654.5 0ZM696.1 0L696.1-38.16 715.51-38.16Q719.91-38.16 723.13-37.24 726.35-36.33 728.48-34.59 730.6-32.86 731.64-30.37 732.67-27.88 732.67-24.73L732.67-24.73Q732.67-22.61 732.16-20.69 731.65-18.77 730.59-17.16 729.53-15.55 727.91-14.29 726.3-13.04 724.13-12.21L724.13-12.21 732.43 0 722.96 0 715.78-10.84 715.56-10.84 703.84-10.86 703.84 0 696.1 0ZM703.84-17.55L715.71-17.55Q717.9-17.55 719.55-18.07 721.2-18.58 722.31-19.51 723.42-20.43 723.97-21.77 724.52-23.1 724.52-24.73L724.52-24.73Q724.52-27.93 722.32-29.68 720.13-31.42 715.71-31.42L715.71-31.42 703.84-31.42 703.84-17.55ZM740.85 0L740.85-38.16 748.64-38.16 748.64 0 740.85 0ZM758.5 0L758.5-38.16 791-38.16 791-31.37 766.24-31.37 766.24-23.75 788.16-23.75 788.16-17.38 766.24-17.38 766.24-6.76 791.51-6.76 791.51 0 758.5 0ZM800.05 0L800.05-38.16 807.79-38.16 831.57-25.71 831.57-38.16 839.31-38.16 839.31 0 831.57 0 831.57-17.5 807.79-29.88 807.79 0 800.05 0ZM850.1 0L850.1-38.16 864.09-38.16Q870.21-38.16 874.73-36.84 879.25-35.52 882.21-33.07 885.18-30.62 886.63-27.11 888.08-23.61 888.08-19.24L888.08-19.24Q888.08-15.09 886.64-11.56 885.2-8.03 882.25-5.46 879.3-2.88 874.78-1.43 870.26 0.02 864.13 0.02L864.13 0.02 850.1 0ZM857.84-6.69L865.99-6.69Q869.46-6.69 872.07-7.58 874.68-8.47 876.43-10.11 878.17-11.74 879.05-14.06 879.93-16.38 879.93-19.24L879.93-19.24Q879.93-22.05 879.05-24.3 878.17-26.56 876.43-28.14 874.68-29.71 872.07-30.57 869.46-31.42 865.99-31.42L865.99-31.42 857.84-31.42 857.84-6.69ZM893.5-5.08L897.63-11.35Q899.7-10.18 901.84-9.24 903.98-8.3 906.27-7.65 908.57-7.01 911.09-6.67 913.62-6.32 916.48-6.32L916.48-6.32Q919.92-6.32 922.34-6.77 924.75-7.23 926.28-8.02 927.8-8.81 928.5-9.91 929.2-11.01 929.2-12.3L929.2-12.3Q929.2-14.38 927.46-15.59 925.73-16.8 922.12-16.8L922.12-16.8Q920.53-16.8 918.77-16.59 917.01-16.38 915.22-16.14 913.42-15.89 911.68-15.69 909.93-15.48 908.39-15.48L908.39-15.48Q905.83-15.48 903.48-16.14 901.12-16.8 899.3-18.12 897.48-19.43 896.41-21.41 895.33-23.39 895.33-26.03L895.33-26.03Q895.33-27.59 895.76-29.13 896.19-30.66 897.13-32.07 898.07-33.47 899.56-34.68 901.05-35.89 903.16-36.77 905.27-37.65 908.04-38.15 910.81-38.65 914.35-38.65L914.35-38.65Q916.92-38.65 919.5-38.37 922.09-38.09 924.54-37.57 927-37.06 929.27-36.34 931.54-35.62 933.49-34.74L933.49-34.74 930.1-28.49Q928.49-29.2 926.63-29.8 924.78-30.4 922.75-30.83 920.72-31.27 918.56-31.53 916.4-31.79 914.16-31.79L914.16-31.79Q910.96-31.79 908.9-31.32 906.83-30.86 905.61-30.14 904.39-29.42 903.91-28.53 903.44-27.64 903.44-26.76L903.44-26.76Q903.44-25.05 904.98-23.96 906.51-22.88 909.66-22.88L909.66-22.88Q910.93-22.88 912.58-23.06 914.23-23.24 916.05-23.46 917.87-23.68 919.76-23.86 921.65-24.05 923.43-24.05L923.43-24.05Q926.8-24.05 929.4-23.29 932-22.53 933.76-21.13 935.52-19.73 936.42-17.74 937.33-15.75 937.33-13.28L937.33-13.28Q937.33-9.99 935.8-7.41 934.27-4.83 931.45-3.06 928.63-1.29 924.65-0.38 920.68 0.54 915.79 0.54L915.79 0.54Q912.57 0.54 909.49 0.13 906.42-0.27 903.6-1.01 900.78-1.76 898.23-2.8 895.68-3.83 893.5-5.08L893.5-5.08Z" opacity="1" transform="matrix(1,0,0,1,0,0)" fill="#374151" class="undefined-text-1" data-fill-palette-color="secondary" id="text-1"></path></svg></g></svg></g></svg></g></svg></g><g><svg viewBox="0 0 96.77643983209968 100.16272054058479" height="100.16272054058479" width="96.77643983209968"><g><svg xmlns="http://www.w3.org/2000/svg" xmlns:xlink="http://www.w3.org/1999/xlink" version="1.0" x="0" y="0" viewBox="1.1649998426437378 -0.03299999237060547 96.68299102783203 100.06600189208984" enable-background="new 0 0 100 100" xml:space="preserve" width="96.77643983209968" height="100.16272054058479" class="icon-icon-0" data-fill-palette-color="accent" id="icon-0"><path enable-background="new    " d="M1.266 44.426v0.114 0.356 21.37V89.47c0 5.812 4.792 10.563 10.653 10.563h8.305 15.453V78.286c0-5.68 2.906-8.585 8.717-8.585h10.301c5.678 0 8.585 2.905 8.585 8.585v21.746h15.608 8.307c5.859 0 10.653-4.753 10.653-10.563V66.264 44.896 44.54v-0.114c0-3.681 0-2.824 0-2.824V35.62c0-3.895-1.655-7.208-4.965-9.934L58.077 2.304c-3.929-3.116-13.114-3.116-17.043 0L6.23 25.686c-3.308 2.725-4.964 6.039-4.964 9.934l-0.101 7.164" fill="#000000" data-fill-palette-color="accent"></path></svg></g></svg></g></svg></g><defs></defs></svg><rect width="395.52" height="78.56136777559271" fill="none" stroke="none" visibility="hidden"></rect></g></svg></g></svg>